<svg width="171" height="171" viewBox="0 0 171 171" fill="none" xmlns="http://www.w3.org/2000/svg">
<path d="M154.969 138.938C154.969 140.355 154.406 141.714 153.404 142.716C152.401 143.718 151.042 144.281 149.625 144.281H21.375C19.9577 144.281 18.5985 143.718 17.5964 142.716C16.5943 141.714 16.0313 140.355 16.0312 138.938V32.0625C16.0312 30.6452 16.5943 29.286 17.5964 28.2839C18.5985 27.2818 19.9577 26.7188 21.375 26.7188C22.7923 26.7188 24.1515 27.2818 25.1536 28.2839C26.1557 29.286 26.7188 30.6452 26.7188 32.0625V104.664L60.3443 71.0318C60.8406 70.535 61.4299 70.1408 62.0787 69.8719C62.7274 69.603 63.4227 69.4645 64.125 69.4645C64.8273 69.4645 65.5226 69.603 66.1713 69.8719C66.8201 70.1408 67.4094 70.535 67.9057 71.0318L85.5 88.6328L120.695 53.4375H106.875C105.458 53.4375 104.099 52.8745 103.096 51.8724C102.094 50.8702 101.531 49.511 101.531 48.0938C101.531 46.6765 102.094 45.3173 103.096 44.3151C104.099 43.313 105.458 42.75 106.875 42.75H133.594C135.011 42.75 136.37 43.313 137.372 44.3151C138.375 45.3173 138.938 46.6765 138.938 48.0938V74.8125C138.938 76.2298 138.375 77.589 137.372 78.5911C136.37 79.5932 135.011 80.1562 133.594 80.1562C132.176 80.1562 130.817 79.5932 129.815 78.5911C128.813 77.589 128.25 76.2298 128.25 74.8125V60.9922L89.2807 99.9682C88.7844 100.465 88.1951 100.859 87.5463 101.128C86.8976 101.397 86.2023 101.535 85.5 101.535C84.7977 101.535 84.1024 101.397 83.4537 101.128C82.8049 100.859 82.2156 100.465 81.7193 99.9682L64.125 82.3672L26.7188 119.773V133.594H149.625C151.042 133.594 152.401 134.157 153.404 135.159C154.406 136.161 154.969 137.52 154.969 138.938Z" fill="#6C757D"/>
</svg>
