<svg width="197" height="197" viewBox="0 0 197 197" fill="none" xmlns="http://www.w3.org/2000/svg">
<path d="M172.375 153.906H166.219V30.7812C166.219 29.1485 165.57 27.5826 164.416 26.4281C163.261 25.2736 161.695 24.625 160.062 24.625H116.969C115.336 24.625 113.77 25.2736 112.616 26.4281C111.461 27.5826 110.812 29.1485 110.812 30.7812V61.5625H73.875C72.2423 61.5625 70.6764 62.2111 69.5219 63.3656C68.3674 64.5201 67.7188 66.086 67.7188 67.7188V98.5H36.9375C35.3048 98.5 33.7389 99.1486 32.5844 100.303C31.4299 101.458 30.7812 103.024 30.7812 104.656V153.906H24.625C22.9923 153.906 21.4264 154.555 20.2719 155.709C19.1174 156.864 18.4688 158.43 18.4688 160.062C18.4688 161.695 19.1174 163.261 20.2719 164.416C21.4264 165.57 22.9923 166.219 24.625 166.219H172.375C174.008 166.219 175.574 165.57 176.728 164.416C177.883 163.261 178.531 161.695 178.531 160.062C178.531 158.43 177.883 156.864 176.728 155.709C175.574 154.555 174.008 153.906 172.375 153.906ZM123.125 36.9375H153.906V153.906H123.125V36.9375ZM80.0312 73.875H110.812V153.906H80.0312V73.875ZM43.0938 110.812H67.7188V153.906H43.0938V110.812Z" fill="#6C757D"/>
</svg>
